<mxfile host="app.diagrams.net" agent="Mozilla/5.0 (Windows NT 10.0; Win64; x64) AppleWebKit/537.36 (KHTML, like Gecko) Chrome/130.0.0.0 YaBrowser/24.12.0.0 Safari/537.36" version="26.0.11">
  <diagram name="Страница — 1" id="VTpUu14SS6Ktj-Iox-bN">
    <mxGraphModel dx="1386" dy="-386" grid="1" gridSize="10" guides="1" tooltips="1" connect="1" arrows="1" fold="1" page="1" pageScale="1" pageWidth="827" pageHeight="1169" math="0" shadow="0">
      <root>
        <mxCell id="0" />
        <mxCell id="1" parent="0" />
        <mxCell id="l0zKXB5L41SE3s98rAse-1" value="" style="edgeStyle=orthogonalEdgeStyle;rounded=0;orthogonalLoop=1;jettySize=auto;html=1;" parent="1" source="l0zKXB5L41SE3s98rAse-2" target="l0zKXB5L41SE3s98rAse-13" edge="1">
          <mxGeometry relative="1" as="geometry" />
        </mxCell>
        <mxCell id="l0zKXB5L41SE3s98rAse-2" value="Кнопка аварийного отключения нажата?" style="rhombus;whiteSpace=wrap;html=1;" parent="1" vertex="1">
          <mxGeometry x="360" y="1320" width="140" height="140" as="geometry" />
        </mxCell>
        <mxCell id="l0zKXB5L41SE3s98rAse-3" value="" style="edgeStyle=orthogonalEdgeStyle;rounded=0;orthogonalLoop=1;jettySize=auto;html=1;" parent="1" source="l0zKXB5L41SE3s98rAse-4" target="l0zKXB5L41SE3s98rAse-9" edge="1">
          <mxGeometry relative="1" as="geometry" />
        </mxCell>
        <mxCell id="l0zKXB5L41SE3s98rAse-4" value="Прокрутка мотора на оборот для открытия створки" style="whiteSpace=wrap;html=1;" parent="1" vertex="1">
          <mxGeometry x="370" y="1600" width="120" height="60" as="geometry" />
        </mxCell>
        <mxCell id="l0zKXB5L41SE3s98rAse-5" style="edgeStyle=orthogonalEdgeStyle;rounded=0;orthogonalLoop=1;jettySize=auto;html=1;entryX=0;entryY=0.5;entryDx=0;entryDy=0;" parent="1" source="l0zKXB5L41SE3s98rAse-9" target="l0zKXB5L41SE3s98rAse-2" edge="1">
          <mxGeometry relative="1" as="geometry">
            <mxPoint x="280" y="1470" as="targetPoint" />
            <Array as="points">
              <mxPoint x="340" y="1775" />
              <mxPoint x="340" y="1390" />
            </Array>
          </mxGeometry>
        </mxCell>
        <mxCell id="l0zKXB5L41SE3s98rAse-6" value="Нет" style="edgeLabel;html=1;align=center;verticalAlign=middle;resizable=0;points=[];" parent="l0zKXB5L41SE3s98rAse-5" vertex="1" connectable="0">
          <mxGeometry x="-0.0407" y="1" relative="1" as="geometry">
            <mxPoint as="offset" />
          </mxGeometry>
        </mxCell>
        <mxCell id="l0zKXB5L41SE3s98rAse-7" value="" style="edgeStyle=orthogonalEdgeStyle;rounded=0;orthogonalLoop=1;jettySize=auto;html=1;" parent="1" source="l0zKXB5L41SE3s98rAse-9" target="l0zKXB5L41SE3s98rAse-11" edge="1">
          <mxGeometry relative="1" as="geometry" />
        </mxCell>
        <mxCell id="l0zKXB5L41SE3s98rAse-8" value="Да" style="edgeLabel;html=1;align=center;verticalAlign=middle;resizable=0;points=[];" parent="l0zKXB5L41SE3s98rAse-7" vertex="1" connectable="0">
          <mxGeometry x="0.0112" y="2" relative="1" as="geometry">
            <mxPoint as="offset" />
          </mxGeometry>
        </mxCell>
        <mxCell id="l0zKXB5L41SE3s98rAse-9" value="Кнопка остановки мотора нажата?" style="rhombus;whiteSpace=wrap;html=1;" parent="1" vertex="1">
          <mxGeometry x="365" y="1710" width="130" height="130" as="geometry" />
        </mxCell>
        <mxCell id="l0zKXB5L41SE3s98rAse-10" value="" style="edgeStyle=orthogonalEdgeStyle;rounded=0;orthogonalLoop=1;jettySize=auto;html=1;" parent="1" source="l0zKXB5L41SE3s98rAse-11" target="l0zKXB5L41SE3s98rAse-14" edge="1">
          <mxGeometry relative="1" as="geometry" />
        </mxCell>
        <mxCell id="l0zKXB5L41SE3s98rAse-11" value="Включение зелёной лампочки светодиодом" style="whiteSpace=wrap;html=1;" parent="1" vertex="1">
          <mxGeometry x="370" y="1955" width="120" height="60" as="geometry" />
        </mxCell>
        <mxCell id="l0zKXB5L41SE3s98rAse-12" value="" style="edgeStyle=orthogonalEdgeStyle;rounded=0;orthogonalLoop=1;jettySize=auto;html=1;" parent="1" source="l0zKXB5L41SE3s98rAse-13" target="l0zKXB5L41SE3s98rAse-4" edge="1">
          <mxGeometry relative="1" as="geometry" />
        </mxCell>
        <mxCell id="l0zKXB5L41SE3s98rAse-13" value="Мигание лампочки белым светом" style="rounded=0;whiteSpace=wrap;html=1;" parent="1" vertex="1">
          <mxGeometry x="370" y="1490" width="120" height="60" as="geometry" />
        </mxCell>
        <mxCell id="l0zKXB5L41SE3s98rAse-14" value="Снятие показаний с&amp;nbsp; датчика расстояния" style="rounded=0;whiteSpace=wrap;html=1;" parent="1" vertex="1">
          <mxGeometry x="369.96" y="2060" width="120" height="60" as="geometry" />
        </mxCell>
        <mxCell id="l0zKXB5L41SE3s98rAse-15" value="" style="endArrow=classic;html=1;rounded=0;" parent="1" edge="1">
          <mxGeometry width="50" height="50" relative="1" as="geometry">
            <mxPoint x="430" y="1240" as="sourcePoint" />
            <mxPoint x="430" y="1320" as="targetPoint" />
          </mxGeometry>
        </mxCell>
        <mxCell id="l0zKXB5L41SE3s98rAse-17" value="" style="endArrow=classic;html=1;rounded=0;exitX=0.5;exitY=1;exitDx=0;exitDy=0;" parent="1" source="l0zKXB5L41SE3s98rAse-14" edge="1">
          <mxGeometry width="50" height="50" relative="1" as="geometry">
            <mxPoint x="350" y="2190" as="sourcePoint" />
            <mxPoint x="430" y="2160" as="targetPoint" />
          </mxGeometry>
        </mxCell>
        <mxCell id="l0zKXB5L41SE3s98rAse-18" value="9" style="ellipse;whiteSpace=wrap;html=1;aspect=fixed;" parent="1" vertex="1">
          <mxGeometry x="420" y="2160" width="20" height="20" as="geometry" />
        </mxCell>
        <mxCell id="l0zKXB5L41SE3s98rAse-19" value="5" style="ellipse;whiteSpace=wrap;html=1;aspect=fixed;" parent="1" vertex="1">
          <mxGeometry x="420" y="1220" width="20" height="20" as="geometry" />
        </mxCell>
        <mxCell id="l0zKXB5L41SE3s98rAse-28" style="edgeStyle=orthogonalEdgeStyle;rounded=0;orthogonalLoop=1;jettySize=auto;html=1;entryX=0.5;entryY=0;entryDx=0;entryDy=0;" parent="1" source="l0zKXB5L41SE3s98rAse-20" target="l0zKXB5L41SE3s98rAse-26" edge="1">
          <mxGeometry relative="1" as="geometry" />
        </mxCell>
        <mxCell id="l0zKXB5L41SE3s98rAse-20" value="3" style="ellipse;whiteSpace=wrap;html=1;aspect=fixed;" parent="1" vertex="1">
          <mxGeometry x="160" y="1220" width="20" height="20" as="geometry" />
        </mxCell>
        <mxCell id="l0zKXB5L41SE3s98rAse-29" style="edgeStyle=orthogonalEdgeStyle;rounded=0;orthogonalLoop=1;jettySize=auto;html=1;exitX=0.5;exitY=1;exitDx=0;exitDy=0;entryX=0.5;entryY=0;entryDx=0;entryDy=0;" parent="1" source="l0zKXB5L41SE3s98rAse-21" target="l0zKXB5L41SE3s98rAse-25" edge="1">
          <mxGeometry relative="1" as="geometry" />
        </mxCell>
        <mxCell id="l0zKXB5L41SE3s98rAse-21" value="4" style="ellipse;whiteSpace=wrap;html=1;aspect=fixed;" parent="1" vertex="1">
          <mxGeometry x="290" y="1220" width="20" height="20" as="geometry" />
        </mxCell>
        <mxCell id="l0zKXB5L41SE3s98rAse-30" style="edgeStyle=orthogonalEdgeStyle;rounded=0;orthogonalLoop=1;jettySize=auto;html=1;exitX=0.5;exitY=1;exitDx=0;exitDy=0;entryX=0.5;entryY=0;entryDx=0;entryDy=0;" parent="1" source="l0zKXB5L41SE3s98rAse-22" target="l0zKXB5L41SE3s98rAse-24" edge="1">
          <mxGeometry relative="1" as="geometry" />
        </mxCell>
        <mxCell id="l0zKXB5L41SE3s98rAse-22" value="6" style="ellipse;whiteSpace=wrap;html=1;aspect=fixed;" parent="1" vertex="1">
          <mxGeometry x="550" y="1220" width="20" height="20" as="geometry" />
        </mxCell>
        <mxCell id="l0zKXB5L41SE3s98rAse-24" value="10" style="ellipse;whiteSpace=wrap;html=1;aspect=fixed;" parent="1" vertex="1">
          <mxGeometry x="550" y="2160" width="20" height="20" as="geometry" />
        </mxCell>
        <mxCell id="l0zKXB5L41SE3s98rAse-25" value="8" style="ellipse;whiteSpace=wrap;html=1;aspect=fixed;" parent="1" vertex="1">
          <mxGeometry x="290" y="2160" width="20" height="20" as="geometry" />
        </mxCell>
        <mxCell id="l0zKXB5L41SE3s98rAse-26" value="7" style="ellipse;whiteSpace=wrap;html=1;aspect=fixed;" parent="1" vertex="1">
          <mxGeometry x="160" y="2160" width="20" height="20" as="geometry" />
        </mxCell>
      </root>
    </mxGraphModel>
  </diagram>
</mxfile>
